<svg width="302" height="45" viewBox="0 0 302 45" fill="none" xmlns="http://www.w3.org/2000/svg">
<path d="M35.296 0.392002V45H29.472V24.776H6.752V45H0.928001V0.392002H6.752V19.976H29.472V0.392002H35.296Z" fill="white"/>
<path d="M51.0645 5.128V20.04H67.3205V24.84H51.0645V40.2H69.2405V45H45.2405V0.328003H69.2405V5.128H51.0645Z" fill="white"/>
<path d="M104.421 35.08H84.965L81.381 45H75.237L91.365 0.648003H98.085L114.149 45H108.005L104.421 35.08ZM102.757 30.344L94.693 7.816L86.629 30.344H102.757Z" fill="white"/>
<path d="M158.042 0.392002L141.21 45H134.49L117.658 0.392002H123.866L137.882 38.856L151.898 0.392002H158.042Z" fill="white"/>
<path d="M170.252 5.128V20.04H186.508V24.84H170.252V40.2H188.428V45H164.428V0.328003H188.428V5.128H170.252Z" fill="white"/>
<path d="M232.313 45H226.489L203.065 9.48V45H197.241V0.328003H203.065L226.489 35.784V0.328003H232.313V45Z" fill="white"/>
<path d="M248.065 40.264H263.681V45H242.241V0.392002H248.065V40.264Z" fill="white"/>
<path d="M301.097 0.392002L286.569 28.168V45H280.746V28.168L266.153 0.392002H272.617L283.625 22.984L294.634 0.392002H301.097Z" fill="white"/>
</svg>
